<mxfile host="app.diagrams.net" modified="2020-04-02T10:40:18.033Z" agent="5.0 (Macintosh; Intel Mac OS X 10_13_6) AppleWebKit/537.36 (KHTML, like Gecko) Chrome/80.0.3987.149 Safari/537.36" etag="q4__pfy267aSJxsePdRG" version="12.9.6" type="github">
  <diagram id="wNmjRfR_Z9Hs4kQZyHKD" name="Page-1">
    <mxGraphModel dx="946" dy="565" grid="1" gridSize="10" guides="1" tooltips="1" connect="1" arrows="1" fold="1" page="1" pageScale="1" pageWidth="827" pageHeight="1169" math="0" shadow="0">
      <root>
        <mxCell id="0" />
        <mxCell id="1" parent="0" />
      </root>
    </mxGraphModel>
  </diagram>
</mxfile>
